<?xml version="1.0" encoding="utf-8"?>
<svg xmlns="http://www.w3.org/2000/svg" height="48" width="48" viewBox="0 0 48 48">
  <g>
    <path id="path1" transform="rotate(0,24,24) translate(6,6.69806313514709) scale(1.125,1.125)  " fill="#FFFFFF" d="M0,15.93199L13.813995,15.93199 13.813995,19.913981 13.041,19.913981 12.673004,17.749981 7.8170013,17.749981 7.8170013,29.345 9.3679962,29.345 9.3679962,30.758999 4.7539978,30.758999 4.7539978,29.345 5.996994,29.345 5.996994,17.749981 1.1419983,17.749981 0.77400208,19.913981 0,19.913981z M3.4069977,0L5.572998,0 29.832993,0 32,0 32,3.0350304 32,7.6480019 31.132996,7.6480019 30.348999,3.0350304 19.220001,3.0350304 19.220001,28.592987 22.524002,28.592987 22.524002,30.758999 13.535995,30.758999 13.535995,28.592987 16.186996,28.592987 16.186996,3.0350304 5.0579987,3.0350304 4.272995,7.6480019 3.4069977,7.6480019 3.4069977,3.0350304z" />
  </g>
</svg>