<?xml version="1.0" encoding="utf-8"?>
<svg style="position: absolute; width: 0; height: 0;" width="0" height="0" version="1.1" xmlns="http://www.w3.org/2000/svg" xmlns:xlink="http://www.w3.org/1999/xlink">
  <defs>
    <symbol id="icon-Text-Decoration---03" viewBox="0 0 512 512">
      <title>Text-Decoration---03</title>
      <g>
        <path class="path1" d="M0,0L2.42099,0 29.57901,0 32,0 32,3.1640015 32,7.9620361 31.031982,7.9620361 30.143982,3.1640015 17.703003,3.1640015 17.703003,29.751038 21.39801,29.751038 21.39801,32 11.328003,32 11.328003,29.751038 14.298004,29.751038 14.298004,3.1640015 1.8399963,3.1640015 0.96800232,7.9620361 0,7.9620361 0,3.1640015z" />
      </g>
    </symbol>
    <symbol id="icon-Text-Decoration---02" viewBox="0 0 512 512">
      <title>Text-Decoration---02</title>
      <g>
        <path class="path1" d="M0,15.93199L13.813995,15.93199 13.813995,19.913981 13.041,19.913981 12.673004,17.749981 7.8170013,17.749981 7.8170013,29.345 9.3679962,29.345 9.3679962,30.758999 4.7539978,30.758999 4.7539978,29.345 5.996994,29.345 5.996994,17.749981 1.1419983,17.749981 0.77400208,19.913981 0,19.913981z M3.4069977,0L5.572998,0 29.832993,0 32,0 32,3.0350304 32,7.6480019 31.132996,7.6480019 30.348999,3.0350304 19.220001,3.0350304 19.220001,28.592987 22.524002,28.592987 22.524002,30.758999 13.535995,30.758999 13.535995,28.592987 16.186996,28.592987 16.186996,3.0350304 5.0579987,3.0350304 4.272995,7.6480019 3.4069977,7.6480019 3.4069977,3.0350304z" />
      </g>
    </symbol>
    <symbol id="icon-Text-Normal" viewBox="0 0 512 512">
      <title>Text-Normal</title>
      <g>
        <path class="path1" d="M0,0L28.311001,0 28.311001,7.2359924 17.857998,7.2359924 17.857998,32 10.358997,32 10.358997,7.2359924 0,7.2359924z" />
      </g>
    </symbol>
    <symbol id="icon-Text" viewBox="0 0 512 512">
      <title>Text</title>
      <g>
        <path class="path1" d="M0,28.640991L14.042999,28.640991 14.042999,32 0,32z M18.759998,18.575012L22.705997,23.174011 26.708,18.807007 28.583,20.825012 24.506996,25.272034 28.379997,29.786011 26.588997,31.901001 22.645,27.304993 18.642998,31.673035 16.765999,29.655029 20.841999,25.205994 16.968998,20.694031z M2.1599998,0L24.453003,0 24.453003,3.7930298 14.41,3.7930298 10.792999,25.02002 7.387001,25.02002 11,3.7930298 2.1599998,3.7930298z" />
      </g>
    </symbol>
    <symbol id="icon-Text-Decoration---15" viewBox="0 0 512 512">
      <title>Text-Decoration---15</title>
      <g>
        <path class="path1" d="M0,10.643003L7.0569992,10.643003 10.529999,10.643003 17.588005,10.643003 17.588005,14.116003 10.529999,14.116003 10.529999,25.68 7.0569992,25.68 7.0569992,14.116003 0,14.116003z M14.412003,0L32,0 32,3.4730039 24.941002,3.4730039 24.941002,25.68 21.468002,25.68 21.468002,3.4730039 14.412003,3.4730039z" />
      </g>
    </symbol>
  </defs>
</svg>

