<?xml version="1.0" encoding="utf-8"?>
<svg style="position: absolute; width: 0; height: 0;" width="0" height="0" version="1.1" xmlns="http://www.w3.org/2000/svg" xmlns:xlink="http://www.w3.org/1999/xlink">
  <defs>
    <symbol id="icon-Bezier-Connector-WF" viewBox="0 0 512 512">
      <title>Bezier-Connector-WF</title>
      <g>
        <path class="path1" d="M3.6570168,5.4750136C2.7430115,5.4750136 2.0000095,6.1950139 2.0000095,7.0800136 2.0000095,7.9660143 2.7430115,8.6860141 3.6570168,8.6860141 4.571022,8.6860141 5.314024,7.9660143 5.314024,7.0800136 5.314024,6.1950139 4.571022,5.4750136 3.6570168,5.4750136z M10.149359,0.00014346838C11.181762,-0.0059010386 12.956978,0.17510992 14.404003,1.2880176 14.887002,1.658018 15.349999,2.1420187 16.190996,3.0200199 16.563994,3.4100202 16.777994,3.6500205 16.964993,3.8610207 17.147992,4.0660211 17.302991,4.2400213 17.570991,4.5090214 18.283988,5.2240223 18.755985,5.6980232 19.391983,6.0880235 19.798981,6.338024 20.866977,6.9910249 22.310971,6.9480246 23.367966,6.9060248 24.135963,6.4860243 24.697961,6.1800236 25.516145,5.7323354 26.226724,5.132151 26.81897,4.3907346L26.866838,4.3289825 25.075937,2.5830208 31.999938,0.63105835 30.17595,7.5550584 28.305693,5.7317318 28.198102,5.8621639C27.478387,6.7087744 26.628453,7.4025253 25.660957,7.9320258 25.004959,8.2910265 23.914964,8.8870267 22.38797,8.9460276 22.306971,8.9490269 22.225971,8.9510268 22.145972,8.9510268 20.231979,8.9510268 18.821985,8.0850261 18.344987,7.7930259 17.50699,7.278025 16.938993,6.7090243 16.153996,5.9210232 15.852998,5.6180228 15.676998,5.4220227 15.471999,5.1900223 15.296,4.9940223 15.096001,4.7680219 14.754003,4.4110216 14.000006,3.6230205 13.548007,3.1520199 13.186008,2.8750197 12.012013,1.9720185 10.42302,1.9710184 9.7920227,2.0140184 9.6510229,2.0230185 9.517024,2.0380185 9.3860245,2.0570185 7.7185001,2.3018001 6.5298729,3.3230699 5.8662071,4.0660769L5.7893505,4.1538056 5.8439064,4.192077C6.7358665,4.8500551 7.3140335,5.8996385 7.3140335,7.0800136 7.3140335,9.0690144 5.6740265,10.686015 3.6570168,10.686015 1.640007,10.686015 0,9.0690144 0,7.0800136 0,5.0920132 1.640007,3.4750131 3.6570168,3.4750131L3.777771,3.4780322 3.8326931,3.4015993C4.5109291,2.472896 6.2605686,0.49498533 9.0930262,0.07901597 9.2760248,0.05201602 9.4660244,0.031015992 9.6590233,0.018015742 9.7924604,0.0087972283 9.9581728,0.0012630224 10.149359,0.00014346838z" />
      </g>
    </symbol>
    <symbol id="icon-Curve" viewBox="0 0 512 512">
      <title>Curve</title>
      <g>
        <path class="path1" d="M13.808987,29.540995L19.870998,29.540995 19.870998,31.865001 13.808987,31.865001z M29.726983,22.905011L31.999992,22.905011 31.999992,29.540995 31.999992,31.865001 22.904992,31.865001 22.904992,29.540995 29.726983,29.540995z M29.72799,13.811003L32.000999,13.811003 32.000999,19.874005 29.72799,19.874005z M11.046995,0L12.328,0 12.328,1.3980101 31.999992,1.3980101 31.999992,3.2910002 31.999992,3.3160091 31.999992,4.7150109 31.999992,5.7420037 31.999992,10.777006 29.726983,10.777006 29.726983,5.5570062C29.473993,5.5470117 29.223993,5.5270074 28.968988,5.5270074 23.540002,5.5270074 18.553005,7.3670032 14.550991,10.428007L14.550991,13.439009 11.295011,13.439009C7.5119918,17.650006 5.191985,23.200999 5.191985,29.30601 5.191985,29.385005 5.2030018,29.463008 5.2040089,29.540995L10.777006,29.540995 10.777006,31.865001 5.3319996,31.865001 4.7149953,31.865001 3.3210136,31.865001 2.8949884,31.865001 1.393005,31.865001 1.393005,11.723005 0,11.723005 0,10.441007 4.7149953,10.441007 4.7149953,11.723005 3.3210136,11.723005 3.3210136,23.949C4.3160084,19.180005,6.6270126,14.898008,9.8340124,11.463011L9.8340124,8.725005 12.803006,8.725005C16.469997,5.8380115,20.915004,3.910003,25.775995,3.3160091L12.328,3.3160091 12.328,4.7150109 11.046995,4.7150109z" />
      </g>
    </symbol>
    <symbol id="icon-Pen-05" viewBox="0 0 512 512">
      <title>Pen-05</title>
      <g>
        <path class="path1" d="M20.356833,3.4611547L28.469895,11.574154 23.735862,22.565141 5.5276949,31.919135 5.5066983,31.898139C4.9607036,32.117133 4.2766921,31.98313 3.788681,31.495156 3.2986867,31.006142 3.1636758,30.320138 3.3856778,29.776131L3.3756833,29.767129 12.015758,21.128161C13.059773,21.629138 14.336777,21.474139 15.203789,20.608142 16.2988,19.512166 16.2988,17.734153 15.203789,16.637168 14.107772,15.540153 12.327757,15.540153 11.232746,16.637168 10.356746,17.513144 10.211741,18.809163 10.733749,19.859149L2.1026776,28.493144C1.5646629,28.722148 0.90666769,28.613139 0.44766421,28.154155 -0.032351116,27.674146 -0.12134114,26.978131 0.15666095,26.431134L9.3637416,8.015167z M24.414868,0.00016000533C24.630873,0.0041575837,24.816865,0.069159959,24.950867,0.20316249L31.636931,6.8871773C32.064927,7.3161624 31.793931,8.2811573 31.03492,9.04016 30.271914,9.8021524 29.308907,10.073149 28.878911,9.64517L22.194848,2.9591721C21.76685,2.5311633 22.036841,1.5671748 22.797848,0.80615894 23.319857,0.2841561 23.939858,-0.0078358129 24.414868,0.00016000533z" />
      </g>
    </symbol>
    <symbol id="icon-Quill-01" viewBox="0 0 512 512">
      <title>Quill-01</title>
      <g>
        <path class="path1" d="M32,0C32,-1.6554259E-07 19.64801,16.000061 14.932999,22.351099 13.499008,22.288048 10.16301,21.960106 8.0900116,21.67507L1.9869995,31.768126C1.9869995,31.768126 0.40000916,32.597109 0,31.120114 0,31.120114 5.9550018,4.5330374 32,0z" />
      </g>
    </symbol>
    <symbol id="icon-Pen-05-WF" viewBox="0 0 512 512">
      <title>Pen-05-WF</title>
      <g>
        <path class="path1" d="M2.6944953,28.677046C2.4304677,28.677047 2.1784652,28.822034 2.0634354,29.069042 1.9904322,29.224039 1.982436,29.398049 2.0414308,29.559028 2.1034473,29.726018 2.2304709,29.86002 2.3984829,29.936039 2.749492,30.096041 3.1685298,29.950016 3.3275385,29.609046 3.4005418,29.454048 3.4085382,29.280038 3.3495431,29.120036 3.2875269,28.952038 3.1605337,28.818037 2.9925216,28.741041 2.895499,28.698042 2.7945087,28.677047 2.6944953,28.677046z M8.5309778,16.240765C8.2849708,16.240765 8.0489641,16.376779 7.9399605,16.608804 7.8709589,16.757819 7.8629585,16.924837 7.9199601,17.078854 7.978962,17.23787 8.0979658,17.364884 8.2559696,17.437892 8.5809799,17.582908 8.9729906,17.447893 9.122995,17.127859 9.1919971,16.979843 9.1999975,16.811825 9.1429964,16.657808 9.0839944,16.498792 8.9649911,16.371778 8.805986,16.29977 8.7179838,16.259767 8.6239811,16.240765 8.5309778,16.240765z M7.5949841,5.4910202L9.4059883,6.3430195 8.5969863,8.0650177 2.6639715,13.321015 2.6216226,26.680731 2.6497474,26.679523C2.8451272,26.6758,3.0423289,26.693076,3.2379399,26.732587L3.3305607,26.753991 7.4153452,18.066572 7.3184424,17.972699C7.1724382,17.816432 7.0579348,17.631413 6.9819327,17.424891 6.8309284,17.017847 6.8499289,16.5768 7.0349341,16.182758 7.3206926,15.575943 7.9428359,15.221718 8.5836826,15.240751 8.797299,15.247096 9.0129924,15.294914 9.2189985,15.388674 9.6230102,15.571692 9.9290185,15.898727 10.081024,16.311771 10.232028,16.719815 10.213028,17.159863 10.028022,17.553905 9.7490135,18.145967 9.1509958,18.497005 8.5279775,18.497005 8.4704757,18.497005 8.412849,18.494004 8.3552852,18.487926L8.3240209,18.483781 4.2442141,27.161466 4.4123278,27.286434C4.4720488,27.334981,4.5294905,27.385976,4.5845314,27.439288L4.6664162,27.522647 14.955988,18.855014 15.180989,11.014009 15.99299,9.2900085 17.801993,10.14201 17.167992,11.48901 16.928992,19.808014 5.3830033,29.534793 5.3797761,29.582131C5.351759,29.882598 5.2712555,30.179275 5.1386791,30.461028 4.6836281,31.429007 3.7065647,32.000017 2.6894899,32.000017 2.3144618,32.000017 1.9344283,31.922014 1.5734087,31.759021 0.91436248,31.46102 0.4133177,30.926021 0.16430595,30.252015 -0.081714645,29.584021 -0.050706454,28.862043 0.25229486,28.217028 0.3496485,28.010312 0.47078242,27.82171 0.61101627,27.652922L0.61751371,27.645485 0.66496664,12.418016 6.9609824,6.8400192z M11.18599,2.6360035L10.73499,3.5970058 17.39099,6.6090088 17.841988,5.647007z M10.214989,0L20.516989,4.6610069 18.361989,9.2440128 8.0599895,4.5840073z" />
      </g>
    </symbol>
    <symbol id="icon-Quill-WF" viewBox="0 0 512 512">
      <title>Quill-WF</title>
      <g>
        <path class="path1" d="M30.206005,0L30.206005,1.1990057C30.206005,2.2390144 30.122021,11.448002 27.224009,14.362004 27.06904,14.51801 26.659006,14.929022 24.332039,15.29801 24.836006,15.969 24.911018,16.53202 24.586006,17.040015 24.539009,17.110023 23.661995,18.407996 22.044014,19.604011 18.895025,21.930001 11.363037,24.049996 11.044006,24.139016L10.506042,22.213021C10.580994,22.192025 18.002018,20.103003 20.855047,17.995002 21.676031,17.388007 22.268013,16.749 22.601021,16.347022 22.343025,16.069007 21.907051,15.677008 21.495001,15.362005L19.476995,13.819005 22.00605,13.573003C23.523018,13.424016 25.393015,13.123998 25.856028,12.899999 27.496042,11.153995 28.047007,5.7529926 28.174997,2.6019904 21.737005,5.6860065 8.4370103,23.323007 3.5499834,30.312999L3.5079349,30.283597 3.263338,30.353394C0.77048695,31.086869,-1.1920929E-07,32.000003,0,32.000003L1.951778,29.195512 1.9110057,29.167003C3.8790243,26.351022,21.362005,1.6159979,29.02705,0.21499636z" />
      </g>
    </symbol>
  </defs>
</svg>

