<?xml version="1.0" encoding="utf-8"?>
<svg xmlns="http://www.w3.org/2000/svg" height="48" width="48" viewBox="0 0 48 48">
  <g>
    <path id="path1" transform="rotate(0,24,24) translate(6,6) scale(1.125,1.125)  " fill="#FFFFFF" d="M16,1.881958C8.2160034,1.881958 1.882019,8.2149658 1.882019,16 1.882019,23.784973 8.2160034,30.116943 16,30.116943 23.783997,30.116943 30.118042,23.784973 30.118042,16 30.118042,8.2149658 23.783997,1.881958 16,1.881958z M16,0C24.822998,0 32,7.1769409 32,16 32,24.82196 24.822998,32 16,32 7.177002,32 0,24.82196 0,16 0,7.1769409 7.177002,0 16,0z" />
  </g>
</svg>