<?xml version="1.0" encoding="utf-8"?>
<svg xmlns="http://www.w3.org/2000/svg" height="48" width="48" viewBox="0 0 48 48">
  <g>
    <path id="path1" transform="rotate(236,24,24) translate(6,17.9891046531584) scale(-1.12500221282679,1.12500221282679)  " fill="#FFFFFF" d="M3.6570168,5.4750136C2.7430115,5.4750136 2.0000095,6.1950139 2.0000095,7.0800136 2.0000095,7.9660143 2.7430115,8.6860141 3.6570168,8.6860141 4.571022,8.6860141 5.314024,7.9660143 5.314024,7.0800136 5.314024,6.1950139 4.571022,5.4750136 3.6570168,5.4750136z M10.149359,0.00014346838C11.181762,-0.0059010386 12.956978,0.17510992 14.404003,1.2880176 14.887002,1.658018 15.349999,2.1420187 16.190996,3.0200199 16.563994,3.4100202 16.777994,3.6500205 16.964993,3.8610207 17.147992,4.0660211 17.302991,4.2400213 17.570991,4.5090214 18.283988,5.2240223 18.755985,5.6980232 19.391983,6.0880235 19.798981,6.338024 20.866977,6.9910249 22.310971,6.9480246 23.367966,6.9060248 24.135963,6.4860243 24.697961,6.1800236 25.516145,5.7323354 26.226724,5.132151 26.81897,4.3907346L26.866838,4.3289825 25.075937,2.5830208 31.999938,0.63105835 30.17595,7.5550584 28.305693,5.7317318 28.198102,5.8621639C27.478387,6.7087744 26.628453,7.4025253 25.660957,7.9320258 25.004959,8.2910265 23.914964,8.8870267 22.38797,8.9460276 22.306971,8.9490269 22.225971,8.9510268 22.145972,8.9510268 20.231979,8.9510268 18.821985,8.0850261 18.344987,7.7930259 17.50699,7.278025 16.938993,6.7090243 16.153996,5.9210232 15.852998,5.6180228 15.676998,5.4220227 15.471999,5.1900223 15.296,4.9940223 15.096001,4.7680219 14.754003,4.4110216 14.000006,3.6230205 13.548007,3.1520199 13.186008,2.8750197 12.012013,1.9720185 10.42302,1.9710184 9.7920227,2.0140184 9.6510229,2.0230185 9.517024,2.0380185 9.3860245,2.0570185 7.7185001,2.3018001 6.5298729,3.3230699 5.8662071,4.0660769L5.7893505,4.1538056 5.8439064,4.192077C6.7358665,4.8500551 7.3140335,5.8996385 7.3140335,7.0800136 7.3140335,9.0690144 5.6740265,10.686015 3.6570168,10.686015 1.640007,10.686015 0,9.0690144 0,7.0800136 0,5.0920132 1.640007,3.4750131 3.6570168,3.4750131L3.777771,3.4780322 3.8326931,3.4015993C4.5109291,2.472896 6.2605686,0.49498533 9.0930262,0.07901597 9.2760248,0.05201602 9.4660244,0.031015992 9.6590233,0.018015742 9.7924604,0.0087972283 9.9581728,0.0012630224 10.149359,0.00014346838z" />
  </g>
</svg>