<?xml version="1.0" encoding="utf-8"?>
<svg xmlns="http://www.w3.org/2000/svg" height="48" width="48" viewBox="0 0 48 48">
  <g>
    <path id="path1" transform="rotate(0,24,24) translate(6,6.07649635767392) scale(1.1249648641593,1.1249648641593)  " fill="#FFFFFF" d="M13.808987,29.540995L19.870998,29.540995 19.870998,31.865001 13.808987,31.865001z M29.726983,22.905011L31.999992,22.905011 31.999992,29.540995 31.999992,31.865001 22.904992,31.865001 22.904992,29.540995 29.726983,29.540995z M29.72799,13.811003L32.000999,13.811003 32.000999,19.874005 29.72799,19.874005z M11.046995,0L12.328,0 12.328,1.3980101 31.999992,1.3980101 31.999992,3.2910002 31.999992,3.3160091 31.999992,4.7150109 31.999992,5.7420037 31.999992,10.777006 29.726983,10.777006 29.726983,5.5570062C29.473993,5.5470117 29.223993,5.5270074 28.968988,5.5270074 23.540002,5.5270074 18.553005,7.3670032 14.550991,10.428007L14.550991,13.439009 11.295011,13.439009C7.5119918,17.650006 5.191985,23.200999 5.191985,29.30601 5.191985,29.385005 5.2030018,29.463008 5.2040089,29.540995L10.777006,29.540995 10.777006,31.865001 5.3319996,31.865001 4.7149953,31.865001 3.3210136,31.865001 2.8949884,31.865001 1.393005,31.865001 1.393005,11.723005 0,11.723005 0,10.441007 4.7149953,10.441007 4.7149953,11.723005 3.3210136,11.723005 3.3210136,23.949C4.3160084,19.180005,6.6270126,14.898008,9.8340124,11.463011L9.8340124,8.725005 12.803006,8.725005C16.469997,5.8380115,20.915004,3.910003,25.775995,3.3160091L12.328,3.3160091 12.328,4.7150109 11.046995,4.7150109z" />
  </g>
</svg>