<?xml version="1.0" encoding="utf-8"?>
<svg xmlns="http://www.w3.org/2000/svg" height="48" width="48" viewBox="0 0 48 48">
  <g>
    <path id="path1" transform="rotate(0,24,24) translate(12.4591993300249,6) scale(1.12499946355845,1.12499946355845)  " fill="#FFFFFF" d="M2.6944953,28.677046C2.4304677,28.677047 2.1784652,28.822034 2.0634354,29.069042 1.9904322,29.224039 1.982436,29.398049 2.0414308,29.559028 2.1034473,29.726018 2.2304709,29.86002 2.3984829,29.936039 2.749492,30.096041 3.1685298,29.950016 3.3275385,29.609046 3.4005418,29.454048 3.4085382,29.280038 3.3495431,29.120036 3.2875269,28.952038 3.1605337,28.818037 2.9925216,28.741041 2.895499,28.698042 2.7945087,28.677047 2.6944953,28.677046z M8.5309778,16.240765C8.2849708,16.240765 8.0489641,16.376779 7.9399605,16.608804 7.8709589,16.757819 7.8629585,16.924837 7.9199601,17.078854 7.978962,17.23787 8.0979658,17.364884 8.2559696,17.437892 8.5809799,17.582908 8.9729906,17.447893 9.122995,17.127859 9.1919971,16.979843 9.1999975,16.811825 9.1429964,16.657808 9.0839944,16.498792 8.9649911,16.371778 8.805986,16.29977 8.7179838,16.259767 8.6239811,16.240765 8.5309778,16.240765z M7.5949841,5.4910202L9.4059883,6.3430195 8.5969863,8.0650177 2.6639715,13.321015 2.6216226,26.680731 2.6497474,26.679523C2.8451272,26.6758,3.0423289,26.693076,3.2379399,26.732587L3.3305607,26.753991 7.4153452,18.066572 7.3184424,17.972699C7.1724382,17.816432 7.0579348,17.631413 6.9819327,17.424891 6.8309284,17.017847 6.8499289,16.5768 7.0349341,16.182758 7.3206926,15.575943 7.9428359,15.221718 8.5836826,15.240751 8.797299,15.247096 9.0129924,15.294914 9.2189985,15.388674 9.6230102,15.571692 9.9290185,15.898727 10.081024,16.311771 10.232028,16.719815 10.213028,17.159863 10.028022,17.553905 9.7490135,18.145967 9.1509958,18.497005 8.5279775,18.497005 8.4704757,18.497005 8.412849,18.494004 8.3552852,18.487926L8.3240209,18.483781 4.2442141,27.161466 4.4123278,27.286434C4.4720488,27.334981,4.5294905,27.385976,4.5845314,27.439288L4.6664162,27.522647 14.955988,18.855014 15.180989,11.014009 15.99299,9.2900085 17.801993,10.14201 17.167992,11.48901 16.928992,19.808014 5.3830033,29.534793 5.3797761,29.582131C5.351759,29.882598 5.2712555,30.179275 5.1386791,30.461028 4.6836281,31.429007 3.7065647,32.000017 2.6894899,32.000017 2.3144618,32.000017 1.9344283,31.922014 1.5734087,31.759021 0.91436248,31.46102 0.4133177,30.926021 0.16430595,30.252015 -0.081714645,29.584021 -0.050706454,28.862043 0.25229486,28.217028 0.3496485,28.010312 0.47078242,27.82171 0.61101627,27.652922L0.61751371,27.645485 0.66496664,12.418016 6.9609824,6.8400192z M11.18599,2.6360035L10.73499,3.5970058 17.39099,6.6090088 17.841988,5.647007z M10.214989,0L20.516989,4.6610069 18.361989,9.2440128 8.0599895,4.5840073z" />
  </g>
</svg>