<?xml version="1.0" encoding="utf-8"?>
<svg xmlns="http://www.w3.org/2000/svg" height="48" width="48" viewBox="0 0 48 48">
  <g>
    <path id="path1" transform="rotate(0,24,24) translate(6.09000740245322,6) scale(1.12499973177974,1.12499973177974)  " fill="#FFFFFF" d="M20.356833,3.4611547L28.469895,11.574154 23.735862,22.565141 5.5276949,31.919135 5.5066983,31.898139C4.9607036,32.117133 4.2766921,31.98313 3.788681,31.495156 3.2986867,31.006142 3.1636758,30.320138 3.3856778,29.776131L3.3756833,29.767129 12.015758,21.128161C13.059773,21.629138 14.336777,21.474139 15.203789,20.608142 16.2988,19.512166 16.2988,17.734153 15.203789,16.637168 14.107772,15.540153 12.327757,15.540153 11.232746,16.637168 10.356746,17.513144 10.211741,18.809163 10.733749,19.859149L2.1026776,28.493144C1.5646629,28.722148 0.90666769,28.613139 0.44766421,28.154155 -0.032351116,27.674146 -0.12134114,26.978131 0.15666095,26.431134L9.3637416,8.015167z M24.414868,0.00016000533C24.630873,0.0041575837,24.816865,0.069159959,24.950867,0.20316249L31.636931,6.8871773C32.064927,7.3161624 31.793931,8.2811573 31.03492,9.04016 30.271914,9.8021524 29.308907,10.073149 28.878911,9.64517L22.194848,2.9591721C21.76685,2.5311633 22.036841,1.5671748 22.797848,0.80615894 23.319857,0.2841561 23.939858,-0.0078358129 24.414868,0.00016000533z" />
  </g>
</svg>