<?xml version="1.0" encoding="utf-8"?>
<svg xmlns="http://www.w3.org/2000/svg" height="48" width="48" viewBox="0 0 48 48">
  <g>
    <path id="path1" transform="rotate(0,24,24) translate(6,8.81250858306885) scale(1.125,1.125)  " fill="#FFFFFF" d="M1,4.9999847L11,4.9999847 11,6.9999847 2,6.9999847 2,24.999985 30,24.999985 30,6.9999847 21,6.9999847 21,4.9999847 31,4.9999847C31.551987,4.9999847,32,5.4468842,32,5.9999847L32,25.999985C32,26.552963,31.551987,26.999985,31,26.999985L1,26.999985C0.44799805,26.999985,0,26.552963,0,25.999985L0,5.9999847C0,5.4468842,0.44799805,4.9999847,1,4.9999847z M15.000005,0L17.000006,0 17.000006,13.171946 19.535997,10.635957 20.949997,12.049954 17.000006,15.99994 16,16.999944 15.000054,15.999999 11.050006,12.049954 12.464005,10.635957 15.000005,13.171955z" />
  </g>
</svg>