<?xml version="1.0" encoding="utf-8"?>
<svg xmlns="http://www.w3.org/2000/svg" height="48" width="48" viewBox="0 0 48 48">
  <g>
    <path id="path1" transform="rotate(0,24,24) translate(6,8.25) scale(1.125,1.125)  " fill="#FFFFFF" d="M2,23L2,25C2,25.552001,2.448,26,3,26L29.000001,26C29.552001,26,30.000001,25.552001,30.000001,25L30.000001,23 11,23 11,24 7.0000005,24 7.0000005,23z M13.021964,8.4470201L13.021964,15.563963 14.905104,14.393004C16.180185,13.59796,17.458196,12.802977,18.73523,12.010985L17.345154,11.145018C15.903073,10.24597,14.463068,9.34796,13.021964,8.4470201z M12.488982,6.0050035C12.758036,6.0050035 13.025016,6.0859971 13.263064,6.2390122 14.977129,7.3109727 16.689119,8.3789659 18.404283,9.4479966L20.459306,10.729979C21.124374,11.128966 21.358394,12.008971 20.979348,12.724974 20.851291,12.950987 20.721402,13.080992 20.59835,13.190978L20.457353,13.297972C18.958262,14.224974,17.459173,15.158995,15.961181,16.091002L13.242067,17.783019C13.025016,17.925963 12.756938,18.005003 12.483,18.005003 12.362023,18.005003 12.239947,17.989989 12.120923,17.958983 11.722956,17.854979 11.384929,17.583983 11.19388,17.213988 11.076932,16.981993 11.021875,16.752989 11.021875,16.50598L11.021875,7.5039659C11.021875,6.6770005,11.679986,6.0050035,12.488982,6.0050035z M3,2C2.448,2,2,2.448,2,3L2,21 7.0000005,21 7.0000005,20 11,20 11,21 30.000001,21 30.000001,3C30.000001,2.448,29.552001,2,29.000001,2z M3,0L29.000001,0C30.654,0,32.000001,1.3460002,32.000001,3L32.000001,25C32.000001,26.654,30.654,28,29.000001,28L3,28C1.3460007,28,0,26.654,0,25L0,3C0,1.3460002,1.3460007,0,3,0z" />
  </g>
</svg>