<?xml version="1.0" encoding="utf-8"?>
<svg style="position: absolute; width: 0; height: 0;" width="0" height="0" version="1.1" xmlns="http://www.w3.org/2000/svg" xmlns:xlink="http://www.w3.org/1999/xlink">
  <defs>
    <symbol id="icon-Picture-WF" viewBox="0 0 512 512">
      <title>Picture-WF</title>
      <g>
        <path class="path1" d="M8.269009,12.887995L2.6936726,22.999944 24.594741,22.999944 17.952993,16.31987 12.99099,19.62394z M21.124999,7.9999996C22.230001,7.9999998 23.124999,8.8949997 23.124999,9.9999996 23.124999,11.105 22.230001,12 21.124999,12 20.02,12 19.124999,11.105 19.124999,9.9999996 19.124999,8.8949997 20.02,7.9999998 21.124999,7.9999996z M1.9999999,5.9999437L1.9999999,20.115875 8.0649995,9.113957 13.508995,16.877975 18.213003,13.74395 25.999999,21.576855 25.999999,5.9999437z M0,3.9999437L27.999999,3.9999437 27.999999,24.999944 0,24.999944z M5.9999999,0L31.999999,0 31.999999,19 29.999999,19 29.999999,1.9999995 5.9999999,1.9999995z" />
      </g>
    </symbol>
    <symbol id="icon-Imports-WF" viewBox="0 0 512 512">
      <title>Imports-WF</title>
      <g>
        <path class="path1" d="M1,4.9999847L11,4.9999847 11,6.9999847 2,6.9999847 2,24.999985 30,24.999985 30,6.9999847 21,6.9999847 21,4.9999847 31,4.9999847C31.551987,4.9999847,32,5.4468842,32,5.9999847L32,25.999985C32,26.552963,31.551987,26.999985,31,26.999985L1,26.999985C0.44799805,26.999985,0,26.552963,0,25.999985L0,5.9999847C0,5.4468842,0.44799805,4.9999847,1,4.9999847z M15.000005,0L17.000006,0 17.000006,13.171946 19.535997,10.635957 20.949997,12.049954 17.000006,15.99994 16,16.999944 15.000054,15.999999 11.050006,12.049954 12.464005,10.635957 15.000005,13.171955z" />
      </g>
    </symbol>
    <symbol id="icon-Import--01" viewBox="0 0 512 512">
      <title>Import--01</title>
      <g>
        <path class="path1" d="M0,21.899998L32,21.899998 27.400024,27.5 4.6000366,27.5z M4.6000366,7.3999977L6.7999878,7.3999977 16,15 25.200012,7.3999977 27.400024,7.3999977 32,19.399998 0,19.399998z M13.700012,0L18.299988,0 18.299988,7.1999969 22.900024,7.1999969 16,12.899998 9.1000366,7.1999969 13.700012,7.1999969z" />
      </g>
    </symbol>
    <symbol id="icon-Import--02" viewBox="0 0 512 512">
      <title>Import--02</title>
      <g>
        <path class="path1" d="M0,18.899998L32,18.899998 32,21 0,21z M4.5999756,8.5L8.2000122,8.5 16,15 23.799988,8.5 27.400024,8.5 32,17.299999 0,17.299999z M13.700012,0L18.299988,0 18.299988,7.2000008 22.900024,7.2000008 16,12.899998 9.0999756,7.2000008 13.700012,7.2000008z" />
      </g>
    </symbol>
    <symbol id="icon-Media-Play-WF" viewBox="0 0 512 512">
      <title>Media-Play-WF</title>
      <g>
        <path class="path1" d="M2,23L2,25C2,25.552001,2.448,26,3,26L29.000001,26C29.552001,26,30.000001,25.552001,30.000001,25L30.000001,23 11,23 11,24 7.0000005,24 7.0000005,23z M13.021964,8.4470201L13.021964,15.563963 14.905104,14.393004C16.180185,13.59796,17.458196,12.802977,18.73523,12.010985L17.345154,11.145018C15.903073,10.24597,14.463068,9.34796,13.021964,8.4470201z M12.488982,6.0050035C12.758036,6.0050035 13.025016,6.0859971 13.263064,6.2390122 14.977129,7.3109727 16.689119,8.3789659 18.404283,9.4479966L20.459306,10.729979C21.124374,11.128966 21.358394,12.008971 20.979348,12.724974 20.851291,12.950987 20.721402,13.080992 20.59835,13.190978L20.457353,13.297972C18.958262,14.224974,17.459173,15.158995,15.961181,16.091002L13.242067,17.783019C13.025016,17.925963 12.756938,18.005003 12.483,18.005003 12.362023,18.005003 12.239947,17.989989 12.120923,17.958983 11.722956,17.854979 11.384929,17.583983 11.19388,17.213988 11.076932,16.981993 11.021875,16.752989 11.021875,16.50598L11.021875,7.5039659C11.021875,6.6770005,11.679986,6.0050035,12.488982,6.0050035z M3,2C2.448,2,2,2.448,2,3L2,21 7.0000005,21 7.0000005,20 11,20 11,21 30.000001,21 30.000001,3C30.000001,2.448,29.552001,2,29.000001,2z M3,0L29.000001,0C30.654,0,32.000001,1.3460002,32.000001,3L32.000001,25C32.000001,26.654,30.654,28,29.000001,28L3,28C1.3460007,28,0,26.654,0,25L0,3C0,1.3460002,1.3460007,0,3,0z" />
      </g>
    </symbol>
  </defs>
</svg>

