<?xml version="1.0" encoding="utf-8"?>
<svg style="position: absolute; width: 0; height: 0;" width="0" height="0" version="1.1" xmlns="http://www.w3.org/2000/svg" xmlns:xlink="http://www.w3.org/1999/xlink">
  <defs>
    <symbol id="icon-Step-WF" viewBox="0 0 512 512">
      <title>Step-WF</title>
      <g>
        <path class="path1" d="M0,21.050974L17,21.050974 17,23.050974 0,23.050974z M5.0000104,14.05096L22.00001,14.05096 22.00001,16.05096 5.0000104,16.05096z M10.074988,6.9759254L27.074988,6.9759254 27.074988,8.9759254 10.074988,8.9759254z M15.049012,0L32.049012,0 32.049012,2 15.049012,2z" />
      </g>
    </symbol>
    <symbol id="icon-Grid" viewBox="0 0 512 512">
      <title>Grid</title>
      <g>
        <path class="path1" d="M18.699982,17L21.399994,17C22.399994,17 23.299988,17.799988 23.299988,18.899994 23.299988,19.899994 22.5,20.799988 21.399994,20.799988L18.699982,20.799988C17.699982,20.799988 16.799988,20 16.799988,18.899994 16.899994,17.899994 17.699982,17 18.699982,17z M10.299988,17L13,17C14,17 14.899994,17.799988 14.899994,18.899994 14.899994,19.899994 14.099976,20.799988 13,20.799988L10.299988,20.799988C9.2999878,20.799988 8.3999939,20 8.3999939,18.899994 8.3999939,17.899994 9.1999817,17 10.299988,17z M18.699982,11L21.399994,11C22.399994,11 23.299988,11.799988 23.299988,12.899994 23.299988,13.899994 22.5,14.799988 21.399994,14.799988L18.699982,14.799988C17.699982,14.799988 16.799988,14 16.799988,12.899994 16.899994,11.799988 17.699982,11 18.699982,11z M10.299988,11L13,11C14,11 14.899994,11.799988 14.899994,12.899994 14.899994,13.899994 14.099976,14.799988 13,14.799988L10.299988,14.799988C9.2999878,14.799988 8.3999939,14 8.3999939,12.899994 8.3999939,11.799988 9.1999817,11 10.299988,11z M6.0999756,5.3999939L6.0999756,26.199982 25.899994,26.199982 25.899994,5.3999939z M26.299988,0C26.5,0,26.699982,0.19998169,26.699982,0.3999939L26.699982,4.7999878 31.699982,4.7999878C31.899994,4.7999878 32,4.8999939 32,5.0999756 32,5.2999878 31.899994,5.3999939 31.699982,5.3999939L26.699982,5.3999939 26.699982,26.199982 28.599976,26.199982C28.799988,26.199982 28.899994,26.299988 28.899994,26.5 28.899994,26.699982 28.799988,26.799988 28.599976,26.799988L26.699982,26.799988 26.699982,28C26.699982,28.199982 26.5,28.399994 26.299988,28.399994 26.099976,28.399994 25.899994,28.199982 25.899994,28L25.899994,26.699982 6.0999756,26.699982 6.0999756,31.099976C6.0999756,31.299988 5.8999939,31.5 5.6999817,31.5 5.5,31.5 5.2999878,31.299988 5.2999878,31.099976L5.2999878,26.699982 0.29998779,26.699982C0.099975586,26.699982 0,26.599976 0,26.399994 0,26.199982 0.099975586,26.099976 0.29998779,26.099976L5.2999878,26.099976 5.2999878,5.3999939 2.8999939,5.3999939C2.6999817,5.3999939 2.5999756,5.2999878 2.5999756,5.0999756 2.5999756,4.8999939 2.6999817,4.7999878 2.8999939,4.7999878L5.1999817,4.7999878 5.1999817,3.5C5.1999817,3.2999878 5.3999939,3.0999756 5.5999756,3.0999756 5.7999878,3.0999756 6,3.2999878 6,3.5L6,4.7999878 25.799988,4.7999878 25.799988,0.3999939C25.899994,0.19998169,26.099976,0,26.299988,0z" />
      </g>
    </symbol>
    <symbol id="icon-Solar-Panel" viewBox="0 0 512 512">
      <title>Solar-Panel</title>
      <g>
        <path class="path1" d="M21.700012,8.6999884L27.700012,8.6999884C28.100037,8.6999884,28.400024,9.0000077,28.400024,9.4000016L28.900024,12.900004C28.900024,13.299998,28.600037,13.600018,28.200012,13.600018L21.799988,13.600018C21.400024,13.600018,21.100037,13.299998,21.100037,12.900004L21,9.4000016C21.100037,9.0000077,21.400024,8.6999884,21.700012,8.6999884z M13,8.6999884L19.200012,8.6999884C19.600037,8.6999884,19.900024,9.0000077,19.900024,9.4000016L20,13.000011C20,13.400005,19.700012,13.699993,19.299988,13.699993L12.900024,13.699993C12.5,13.699993,12.200012,13.400005,12.200012,13.000011L12.299988,9.4000016C12.299988,9.0000077,12.600037,8.6999884,13,8.6999884z M4.4000244,8.6999884L10.299988,8.6999884C10.700012,8.6999884,11,9.0000077,11,9.2999955L10.900024,12.799998C10.900024,13.199992,10.600037,13.500012,10.200012,13.500012L3.9000244,13.500012C3.5,13.500012,3.2000122,13.199992,3.2000122,12.799998L3.7000122,9.2999955C3.7000122,9.0000077,4,8.6999884,4.4000244,8.6999884z M21.299988,2.6000081L26.799988,2.6000081C27.200012,2.6000081,27.5,2.8999961,27.5,3.2999907L28,6.8999997C28,7.2999936,27.700012,7.6000124,27.299988,7.6000124L21.600037,7.6000124C21.200012,7.6000124,20.900024,7.2999936,20.900024,6.8999997L20.600037,3.2999907C20.700012,2.8999961,21,2.6000081,21.299988,2.6000081z M13.400024,2.6000081L19,2.6000081C19.400024,2.6000081,19.700012,2.8999961,19.700012,3.2999907L19.799988,6.8999997C19.799988,7.2999936,19.5,7.6000124,19.100037,7.6000124L13.299988,7.6000124C12.900024,7.6000124,12.600037,7.2999936,12.600037,6.8999997L12.700012,3.2999907C12.799988,2.8999961,13.100037,2.6000081,13.400024,2.6000081z M5.2999878,2.6000081L10.799988,2.6000081C11.200012,2.6000081,11.5,2.8999961,11.5,3.2999907L11.200012,6.8999997C11.200012,7.2999936,10.900024,7.6000124,10.5,7.6000124L4.7999878,7.6000124C4.4000244,7.6000124,4.1000366,7.2999936,4.1000366,6.8999997L4.6000366,3.2999907C4.7000122,2.8999961,5,2.6000081,5.2999878,2.6000081z M4,1.5000009L1.6000366,15.100019 30.299988,15.100019 27.799988,1.5000009z M3.4000244,0L28.400024,0C28.799988,-7.9868187E-08,29.100037,0.29998796,29.100037,0.69998219L32,15.900007C32,16.300001,31.700012,16.60002,31.299988,16.60002L18.600037,16.60002 18.600037,22.200001 13.700012,22.200001 13.700012,16.60002 0.70001221,16.60002C0.29998779,16.60002,0,16.300001,0,15.900007L2.7000122,0.69998219C2.7000122,0.29998796,3,-7.9868187E-08,3.4000244,0z" />
      </g>
    </symbol>
    <symbol id="icon-Solar-Panel-WF" viewBox="0 0 512 512">
      <title>Solar-Panel-WF</title>
      <g>
        <path class="path1" d="M21.493565,13.999998L21.980762,17.999002 29.382935,17.999002 28.294882,13.999998z M11.529897,13.999998L11.051696,17.999002 19.967247,17.999002 19.480049,13.999998z M3.7049971,13.999998L2.6169434,17.999002 9.0372276,17.999002 9.5151901,13.999998z M20.762585,7.9999986L21.249905,11.999998 27.750719,11.999998 26.662394,7.9999986z M12.247376,7.9999986L11.769056,11.999998 19.236389,11.999998 18.749069,7.9999986z M5.3374834,7.9999986L4.2491589,11.999998 9.7542315,11.999998 10.232313,7.9999986z M20.031607,1.9999976L20.518927,5.9999986 26.118233,5.9999986 25.029907,1.9999976z M12.964856,1.9999976L12.486536,5.9999986 18.505409,5.9999986 18.018089,1.9999976z M6.9699707,1.9999976L5.8816457,5.9999986 10.471354,5.9999986 10.949436,1.9999976z M5.440918,0L26.55896,0 32,19.999 16.999962,19.999 16.999962,30.998004C16.999962,31.551003 16.552961,31.998002 15.999961,31.998002 15.446961,31.998002 14.999961,31.551003 14.999961,30.998004L14.999961,19.999 0,19.999z" />
      </g>
    </symbol>
    <symbol id="icon-Code-Hexagon-" viewBox="0 0 512 512">
      <title>Code-Hexagon-</title>
      <g>
        <path class="path1" d="M19.472763,8.0309457L22.684738,14.454958 19.472763,20.87897 22.202744,20.87897 22.203781,20.87897 25.57579,14.454958 22.363754,8.0309457z M9.1937714,8.0309457L5.9807587,14.454958 9.1937714,20.87897 11.923752,20.87897 8.7107391,14.454958 11.923752,8.0309457z M17.545761,4.8189702L11.602768,24.091983 14.012741,24.091983 19.954758,4.8189702z M9.5147552,0L22.363754,0C23.487778,4.5223715E-08,24.61174,0.32098396,25.093796,1.2849731L31.517746,12.68799C32.160751,13.651979,32.160751,14.774965,31.517746,15.738954L25.093796,27.302981C24.61174,28.266971,23.487778,28.908999,22.363754,28.908999L9.5147552,28.908999C8.3917694,28.908999,7.2667694,28.266971,6.7847748,27.302981L0.36076355,15.738954C-0.12025452,14.774965,-0.12025452,13.651979,0.36076355,12.68799L6.7847748,1.4459838C7.2667694,0.32196052,8.3917694,4.5223715E-08,9.5147552,0z" />
      </g>
    </symbol>
    <symbol id="icon-Source-Code-WF" viewBox="0 0 512 512">
      <title>Source-Code-WF</title>
      <g>
        <path class="path1" d="M7.1998558,4.1550458C7.4237766,4.1577906 7.647974,4.2354458 7.8321648,4.3911938 8.2541733,4.7481893 8.3071747,5.3791813 7.9511671,5.8001757L2.629055,12.090096 7.946167,18.278018C8.3051748,18.697012 8.2571735,19.327004 7.8381653,19.687999 7.6501617,19.849997 7.4181557,19.928997 7.187151,19.928997 6.9061451,19.928997 6.6261387,19.810997 6.4281349,19.58L0,12.099096 6.4231358,4.5091924C6.6245155,4.2718204,6.9119587,4.1515172,7.1998558,4.1550458z M24.799789,4.1550325C25.087939,4.1513976,25.375133,4.2714521,25.575945,4.5082545L32.000013,12.099117 25.57094,19.579966C25.37294,19.81098 25.092908,19.928958 24.811961,19.928958 24.580941,19.928958 24.348944,19.849981 24.160954,19.687966 23.741944,19.32698 23.693909,18.69601 24.052921,18.278018L29.370961,12.090115 24.047915,5.8012295C23.691895,5.3792406 23.744935,4.7482404 24.165898,4.3912524 24.350977,4.2355107 24.575672,4.1578593 24.799789,4.1550325z M19.59859,0.00014400482C19.696917,0.0018253326 19.796641,0.018243313 19.894888,0.050868511 20.419875,0.22386956 20.704868,0.78987241 20.532872,1.3138747L13.293056,23.312987C13.154059,23.732989 12.763069,23.999991 12.34308,23.999991 12.239082,23.999991 12.134086,23.98399 12.031088,23.94999 11.506102,23.776989 11.221108,23.211987 11.393104,22.687983L18.63292,0.68887162C18.772667,0.26230717,19.172508,-0.0071396828,19.59859,0.00014400482z" />
      </g>
    </symbol>
  </defs>
</svg>

