<?xml version="1.0" encoding="utf-8"?>
<svg xmlns="http://www.w3.org/2000/svg" height="48" width="48" viewBox="0 0 48 48">
  <g>
    <path id="path1" transform="rotate(0,24,24) translate(6,6.28125) scale(1.125,1.125)  " fill="#FFFFFF" d="M18.699982,17L21.399994,17C22.399994,17 23.299988,17.799988 23.299988,18.899994 23.299988,19.899994 22.5,20.799988 21.399994,20.799988L18.699982,20.799988C17.699982,20.799988 16.799988,20 16.799988,18.899994 16.899994,17.899994 17.699982,17 18.699982,17z M10.299988,17L13,17C14,17 14.899994,17.799988 14.899994,18.899994 14.899994,19.899994 14.099976,20.799988 13,20.799988L10.299988,20.799988C9.2999878,20.799988 8.3999939,20 8.3999939,18.899994 8.3999939,17.899994 9.1999817,17 10.299988,17z M18.699982,11L21.399994,11C22.399994,11 23.299988,11.799988 23.299988,12.899994 23.299988,13.899994 22.5,14.799988 21.399994,14.799988L18.699982,14.799988C17.699982,14.799988 16.799988,14 16.799988,12.899994 16.899994,11.799988 17.699982,11 18.699982,11z M10.299988,11L13,11C14,11 14.899994,11.799988 14.899994,12.899994 14.899994,13.899994 14.099976,14.799988 13,14.799988L10.299988,14.799988C9.2999878,14.799988 8.3999939,14 8.3999939,12.899994 8.3999939,11.799988 9.1999817,11 10.299988,11z M6.0999756,5.3999939L6.0999756,26.199982 25.899994,26.199982 25.899994,5.3999939z M26.299988,0C26.5,0,26.699982,0.19998169,26.699982,0.3999939L26.699982,4.7999878 31.699982,4.7999878C31.899994,4.7999878 32,4.8999939 32,5.0999756 32,5.2999878 31.899994,5.3999939 31.699982,5.3999939L26.699982,5.3999939 26.699982,26.199982 28.599976,26.199982C28.799988,26.199982 28.899994,26.299988 28.899994,26.5 28.899994,26.699982 28.799988,26.799988 28.599976,26.799988L26.699982,26.799988 26.699982,28C26.699982,28.199982 26.5,28.399994 26.299988,28.399994 26.099976,28.399994 25.899994,28.199982 25.899994,28L25.899994,26.699982 6.0999756,26.699982 6.0999756,31.099976C6.0999756,31.299988 5.8999939,31.5 5.6999817,31.5 5.5,31.5 5.2999878,31.299988 5.2999878,31.099976L5.2999878,26.699982 0.29998779,26.699982C0.099975586,26.699982 0,26.599976 0,26.399994 0,26.199982 0.099975586,26.099976 0.29998779,26.099976L5.2999878,26.099976 5.2999878,5.3999939 2.8999939,5.3999939C2.6999817,5.3999939 2.5999756,5.2999878 2.5999756,5.0999756 2.5999756,4.8999939 2.6999817,4.7999878 2.8999939,4.7999878L5.1999817,4.7999878 5.1999817,3.5C5.1999817,3.2999878 5.3999939,3.0999756 5.5999756,3.0999756 5.7999878,3.0999756 6,3.2999878 6,3.5L6,4.7999878 25.799988,4.7999878 25.799988,0.3999939C25.899994,0.19998169,26.099976,0,26.299988,0z" />
  </g>
</svg>