<?xml version="1.0" encoding="utf-8"?>
<svg xmlns="http://www.w3.org/2000/svg" height="48" width="48" viewBox="0 0 48 48">
  <g>
    <path id="path1" transform="rotate(0,24,24) translate(6,11.5124995708466) scale(1.125,1.125)  " fill="#FFFFFF" d="M21.700012,8.6999884L27.700012,8.6999884C28.100037,8.6999884,28.400024,9.0000077,28.400024,9.4000016L28.900024,12.900004C28.900024,13.299998,28.600037,13.600018,28.200012,13.600018L21.799988,13.600018C21.400024,13.600018,21.100037,13.299998,21.100037,12.900004L21,9.4000016C21.100037,9.0000077,21.400024,8.6999884,21.700012,8.6999884z M13,8.6999884L19.200012,8.6999884C19.600037,8.6999884,19.900024,9.0000077,19.900024,9.4000016L20,13.000011C20,13.400005,19.700012,13.699993,19.299988,13.699993L12.900024,13.699993C12.5,13.699993,12.200012,13.400005,12.200012,13.000011L12.299988,9.4000016C12.299988,9.0000077,12.600037,8.6999884,13,8.6999884z M4.4000244,8.6999884L10.299988,8.6999884C10.700012,8.6999884,11,9.0000077,11,9.2999955L10.900024,12.799998C10.900024,13.199992,10.600037,13.500012,10.200012,13.500012L3.9000244,13.500012C3.5,13.500012,3.2000122,13.199992,3.2000122,12.799998L3.7000122,9.2999955C3.7000122,9.0000077,4,8.6999884,4.4000244,8.6999884z M21.299988,2.6000081L26.799988,2.6000081C27.200012,2.6000081,27.5,2.8999961,27.5,3.2999907L28,6.8999997C28,7.2999936,27.700012,7.6000124,27.299988,7.6000124L21.600037,7.6000124C21.200012,7.6000124,20.900024,7.2999936,20.900024,6.8999997L20.600037,3.2999907C20.700012,2.8999961,21,2.6000081,21.299988,2.6000081z M13.400024,2.6000081L19,2.6000081C19.400024,2.6000081,19.700012,2.8999961,19.700012,3.2999907L19.799988,6.8999997C19.799988,7.2999936,19.5,7.6000124,19.100037,7.6000124L13.299988,7.6000124C12.900024,7.6000124,12.600037,7.2999936,12.600037,6.8999997L12.700012,3.2999907C12.799988,2.8999961,13.100037,2.6000081,13.400024,2.6000081z M5.2999878,2.6000081L10.799988,2.6000081C11.200012,2.6000081,11.5,2.8999961,11.5,3.2999907L11.200012,6.8999997C11.200012,7.2999936,10.900024,7.6000124,10.5,7.6000124L4.7999878,7.6000124C4.4000244,7.6000124,4.1000366,7.2999936,4.1000366,6.8999997L4.6000366,3.2999907C4.7000122,2.8999961,5,2.6000081,5.2999878,2.6000081z M4,1.5000009L1.6000366,15.100019 30.299988,15.100019 27.799988,1.5000009z M3.4000244,0L28.400024,0C28.799988,-7.9868187E-08,29.100037,0.29998796,29.100037,0.69998219L32,15.900007C32,16.300001,31.700012,16.60002,31.299988,16.60002L18.600037,16.60002 18.600037,22.200001 13.700012,22.200001 13.700012,16.60002 0.70001221,16.60002C0.29998779,16.60002,0,16.300001,0,15.900007L2.7000122,0.69998219C2.7000122,0.29998796,3,-7.9868187E-08,3.4000244,0z" />
  </g>
</svg>