<?xml version="1.0" encoding="utf-8"?>
<svg xmlns="http://www.w3.org/2000/svg" height="48" width="48" viewBox="0 0 48 48">
  <g>
    <path id="path1" transform="rotate(0,24,24) translate(6,6.00112438201904) scale(1.125,1.125)  " fill="#FFFFFF" d="M21.493565,13.999998L21.980762,17.999002 29.382935,17.999002 28.294882,13.999998z M11.529897,13.999998L11.051696,17.999002 19.967247,17.999002 19.480049,13.999998z M3.7049971,13.999998L2.6169434,17.999002 9.0372276,17.999002 9.5151901,13.999998z M20.762585,7.9999986L21.249905,11.999998 27.750719,11.999998 26.662394,7.9999986z M12.247376,7.9999986L11.769056,11.999998 19.236389,11.999998 18.749069,7.9999986z M5.3374834,7.9999986L4.2491589,11.999998 9.7542315,11.999998 10.232313,7.9999986z M20.031607,1.9999976L20.518927,5.9999986 26.118233,5.9999986 25.029907,1.9999976z M12.964856,1.9999976L12.486536,5.9999986 18.505409,5.9999986 18.018089,1.9999976z M6.9699707,1.9999976L5.8816457,5.9999986 10.471354,5.9999986 10.949436,1.9999976z M5.440918,0L26.55896,0 32,19.999 16.999962,19.999 16.999962,30.998004C16.999962,31.551003 16.552961,31.998002 15.999961,31.998002 15.446961,31.998002 14.999961,31.551003 14.999961,30.998004L14.999961,19.999 0,19.999z" />
  </g>
</svg>